<svg width="26" height="24" viewBox="0 0 26 24" fill="none" xmlns="http://www.w3.org/2000/svg">
<path fill-rule="evenodd" clip-rule="evenodd" d="M16.5377 21.1309C17.1168 20.2909 17.6958 19.2109 18.1127 17.8255C19.074 18.1746 19.7341 18.5891 20.1394 18.9164C19.1018 19.8875 17.8589 20.642 16.4914 21.1309H16.5377ZM5.32728 18.9055C5.75578 18.5782 6.40431 18.1746 7.36554 17.8146C7.79404 19.2109 8.34993 20.2909 8.94056 21.1309C7.59304 20.6315 6.37046 19.8737 5.35044 18.9055H5.32728ZM18.8771 10.9091C18.8413 9.93636 18.7369 8.96694 18.5644 8.00728C19.8383 7.57092 20.7648 7.04728 21.4133 6.56728C22.3174 7.87116 22.8773 9.35986 23.0462 10.9091H18.8771ZM7.44663 5.8691C6.77216 5.63522 6.13653 5.31197 5.55892 4.9091C6.53547 4.02948 7.68391 3.33669 8.94058 2.8691C8.39627 3.63273 7.86354 4.61455 7.43505 5.8691H7.44663ZM16.5377 2.8691C17.7952 3.33519 18.9439 4.02817 19.9194 4.9091C19.4909 5.21455 18.8771 5.56364 18.0316 5.8691C17.6864 4.80579 17.1793 3.79527 16.5261 2.8691H16.5377ZM16.3061 8.54181C16.4219 9.26182 16.5377 10.0364 16.5609 10.9091H8.91739C8.95213 10.0364 9.0332 9.25091 9.14901 8.54181C11.5118 8.94279 13.9317 8.94279 16.2945 8.54181H16.3061ZM12.7391 6.65454C11.581 6.65454 10.5619 6.56727 9.69333 6.43636C10.6198 3.75272 12.0559 2.67272 12.7391 2.29091C13.3993 2.67272 14.8469 3.76363 15.7734 6.43636C14.9048 6.56727 13.8972 6.65454 12.7391 6.65454ZM4.05337 6.56728C4.71349 7.04728 5.63997 7.58182 6.91389 8.00728C6.75175 8.88001 6.64752 9.84001 6.6012 10.9091H2.3857C2.571 9.31637 3.16163 7.85455 4.06495 6.56728H4.05337ZM2.39728 13.0909H6.6012C6.64752 14.0291 6.71701 14.8909 6.85598 15.6764C5.78934 16.022 4.79416 16.5387 3.9144 17.2036C3.08134 15.9592 2.55867 14.553 2.3857 13.0909H2.39728ZM12.7391 14.8364C11.3494 14.8364 10.1566 14.9455 9.11426 15.12C9.0126 14.4472 8.9469 13.7699 8.91739 13.0909H16.5609C16.5261 13.8218 16.4682 14.5091 16.3756 15.12C15.3333 14.9345 14.1288 14.8255 12.7391 14.8255V14.8364ZM12.7391 21.7091C12.0443 21.3164 10.5156 20.1491 9.58911 17.2364C10.6303 17.0766 11.6844 17.0036 12.7391 17.0182C13.9552 17.0182 14.9974 17.0945 15.9008 17.2364C14.9743 20.1818 13.4456 21.3164 12.7507 21.7091H12.7391ZM21.5639 17.1927C20.6848 16.5268 19.6894 16.01 18.6223 15.6655C18.7381 14.9018 18.8539 14.0291 18.8771 13.0909H23.0926C22.9179 14.5493 22.3953 15.9515 21.5639 17.1927ZM12.7391 0C5.7035 0 0 5.37258 0 12C0 18.6274 5.7035 24 12.7391 24C19.7748 24 25.4783 18.6274 25.4783 12C25.4783 5.37258 19.7748 0 12.7391 0Z" fill="black"/>
</svg>
