<svg width="155" height="28" viewBox="0 0 155 28" fill="none" xmlns="http://www.w3.org/2000/svg">
<path fill-rule="evenodd" clip-rule="evenodd" d="M74.9092 28H76.2118V22.6309H74.5704V0H66.1725C66.0772 6.6823 65.9713 11.9879 65.643 15.5461C65.3041 18.9667 64.7322 21.6566 63.5567 22.6309H62.8578V28H64.1604L64.3934 23.997H74.6657L74.9092 28ZM65.41 22.6308H72.8865V1.37668H67.6868C67.5915 7.45535 67.4221 12.0832 67.1467 15.5461C66.8502 19.1361 66.3101 21.5189 65.41 22.6308ZM33.5129 20.8518L34.1165 22.8639C33.0469 23.7005 31.6384 24.2406 29.9546 24.2406C26.4599 24.2406 24.3101 21.4554 24.3101 16.2451C24.3101 10.8124 25.8245 6.85178 29.4145 6.85178C32.2421 6.85178 34.0847 8.95919 34.0847 14.699V16.1498H27.0318C27.0318 19.9728 28.1119 21.9849 30.1876 21.9849C31.6702 21.9849 32.8457 21.3177 33.5129 20.8518ZM21.3979 21.8578H22.7323V27.3222H20.3919V23.997H13.1377V27.3222H10.7867V21.8578H11.8246C13.3707 18.2572 13.5401 13.0257 13.5401 8.52497V7.08472H21.3979V21.8578ZM6.68834 7.08472V14.2648H2.79122V7.08472H0.175484V23.997H2.79122V16.4145H6.68834V23.997H9.27231V7.08472H6.68834ZM46.708 23.997H43.8487L39.3903 15.5779V23.997H36.7746V7.08472H39.3903V14.9002L43.4463 7.08472H46.1044L41.9107 15.0378L46.708 23.997ZM52.8502 24.2406C54.3963 24.2406 55.4659 23.7323 56.3766 22.9592L55.773 21.0106C55.1694 21.5507 54.1951 22.059 52.9137 22.059C50.8063 22.059 49.7897 19.6339 49.7897 15.4085C49.7897 11.1407 51.1346 9.03332 53.0196 9.03332C54.0892 9.03332 55.0953 9.60518 55.8048 10.2088L56.1754 7.72016C55.4341 7.2542 54.5658 6.85178 53.0514 6.85178C49.0907 6.85178 47.0468 10.2406 47.0468 15.5462C47.0468 21.3177 49.2284 24.2406 52.8502 24.2406ZM14.3131 21.8578H18.8139V9.20272H15.891V9.49924C15.891 13.0575 15.7216 18.2572 14.3131 21.8578ZM29.4145 9.00151C30.9289 9.00151 31.3949 11.1089 31.3949 14H27.0635C27.233 10.9818 27.8048 9.00151 29.4145 9.00151ZM88.2315 15.4403C88.2315 21.053 85.9864 24.3359 83.0636 24.3359C80.1407 24.3359 77.8956 21.413 77.8956 15.6415C77.8956 10.0076 80.1407 6.74585 83.0636 6.74585C85.9864 6.74585 88.2315 9.63693 88.2315 15.4403ZM83.0636 23.065C81.0833 23.065 79.4736 20.8093 79.4736 15.5461C79.4736 10.4099 81.0833 8.05896 83.0636 8.05896C85.044 8.05896 86.6536 10.2405 86.6536 15.5461C86.6536 20.6505 85.044 23.065 83.0636 23.065ZM97.1271 21.9849H95.8245L92.997 12.0514C92.83 11.4771 92.7263 10.9743 92.6219 10.4687L92.6218 10.4682C92.5607 10.1723 92.4994 9.8755 92.4252 9.56279H92.2981C92.3147 9.80125 92.3343 10.0346 92.354 10.2709C92.4098 10.937 92.4675 11.6262 92.4675 12.5174V23.997H91.1226V7.08472H92.9652L95.9199 17.4206C96.2587 18.6278 96.354 19.4009 96.46 20.2799H96.587C96.6929 19.4009 96.8306 18.6278 97.1589 17.4206L100.188 7.08472H101.999V23.997H100.484V12.5174C100.484 11.526 100.541 10.7048 100.598 9.88362C100.606 9.76625 100.614 9.64888 100.622 9.53102H100.484L100.435 9.80501L100.435 9.80513L100.435 9.80534C100.288 10.6264 100.164 11.326 99.9441 12.0514L97.1271 21.9849ZM109.083 23.0651C107.474 23.0651 106.425 21.6884 106.425 19.3056C106.425 16.351 107.77 15.0696 110.555 15.0696H112.366V19.7398C111.762 21.5507 110.661 23.0651 109.083 23.0651ZM114.283 23.997H112.843C112.705 23.5628 112.536 22.9274 112.44 21.7201C111.635 23.3298 110.428 24.3359 108.744 24.3359C106.457 24.3359 104.879 22.525 104.879 19.4327C104.879 15.8109 106.859 13.9259 110.523 13.9259H112.366V11.8185C112.366 9.23451 111.392 8.12255 109.549 8.12255C108.109 8.12255 106.796 8.78973 105.991 9.96522L105.557 8.46143C106.224 7.58246 107.632 6.74585 109.549 6.74585C112.334 6.74585 113.912 8.29199 113.912 11.649V20.8835C113.912 22.059 114.082 23.3616 114.283 23.997ZM117.545 23.997H131.407V7.08472H129.829V22.7262H125.265V7.08472H123.687V22.7262H119.123V7.08472H117.545V23.997ZM142.622 23.997L136.744 15.239V23.997H135.166V7.08472H136.744V15.0378L142.421 7.08472H143.956L138.386 14.9425L144.359 23.997H142.622ZM149.601 23.0651C147.991 23.0651 146.943 21.6884 146.943 19.3056C146.943 16.351 148.287 15.0696 151.073 15.0696H152.894V19.7398C152.29 21.5507 151.179 23.0651 149.601 23.0651ZM154.8 23.997H153.36C153.222 23.5628 153.053 22.9274 152.958 21.7201C152.153 23.3298 150.946 24.3359 149.262 24.3359C146.985 24.3359 145.407 22.525 145.407 19.4327C145.407 15.8109 147.387 13.9259 151.041 13.9259H152.894V11.8185C152.894 9.23451 151.92 8.12255 150.067 8.12255C148.626 8.12255 147.313 8.78973 146.508 9.96522L146.074 8.46143C146.741 7.58246 148.16 6.74585 150.067 6.74585C152.852 6.74585 154.43 8.29199 154.43 11.649V20.8835C154.43 22.059 154.599 23.3616 154.8 23.997Z" fill="black"/>
</svg>
