<svg width="20" height="20" viewBox="0 0 20 20" fill="none" xmlns="http://www.w3.org/2000/svg">
<path fill-rule="evenodd" clip-rule="evenodd" d="M9.31597 0.00521839C8.99231 0.0329753 8.66975 0.0723359 8.34892 0.123224C3.91585 0.864012 0.518338 4.46593 0.0375019 8.93466C-0.0125006 9.35769 -0.0125006 10.6428 0.0375019 11.0648C0.314516 13.3829 1.25956 15.382 2.84464 17.0041C4.47372 18.6692 6.54583 19.6762 8.93495 19.9612C9.35697 20.0112 10.643 20.0112 11.0651 19.9612C13.4542 19.6762 15.5263 18.6692 17.1554 17.0041C18.7404 15.382 19.6855 13.3839 19.9625 11.0658C20.0125 10.6427 20.0125 9.35769 19.9625 8.93567C19.6855 6.61755 18.7404 4.61745 17.1554 2.99637C15.5293 1.33428 13.4492 0.322234 11.0751 0.0402201C10.4891 0.00375612 9.90189 -0.00792155 9.31497 0.00521839H9.31597ZM9.45277 2.00417C9.19385 2.02638 8.9358 2.05787 8.67913 2.09858C5.13268 2.69121 2.41467 5.57274 2.03 9.14773C1.99 9.48615 1.99 10.5142 2.03 10.8518C2.25161 12.7063 3.00765 14.3056 4.27571 15.6033C5.57898 16.9353 7.23666 17.741 9.14796 17.969C9.48557 18.009 10.5144 18.009 10.852 17.969C12.7633 17.741 14.421 16.9353 15.7243 15.6033C16.9923 14.3056 17.7484 12.7071 17.97 10.8526C18.01 10.5142 18.01 9.48615 17.97 9.14853C17.7484 7.29404 16.9923 5.69396 15.7243 4.39709C14.4234 3.06743 12.7593 2.25779 10.86 2.03218C10.3913 2.003 9.92151 1.99366 9.45197 2.00417H9.45277ZM11.2505 7.99622V11.9962H8.7485V3.99622H11.2505V7.99622ZM10.3025 13.5522C10.7275 13.6532 11.0895 14.0132 11.2025 14.4492C11.2415 14.6002 11.2415 14.9032 11.2025 15.0552C11.0853 15.4947 10.742 15.838 10.3025 15.9552C10.2365 15.9712 10.1045 15.9852 9.9995 15.9852C9.6455 15.9852 9.3785 15.8742 9.1275 15.6232C8.88814 15.3979 8.75704 15.0807 8.7675 14.7522C8.7675 14.4172 8.8755 14.1412 9.1005 13.9042C9.4175 13.5712 9.8505 13.4442 10.3025 13.5522Z" fill="white"/>
</svg>
